{
    "asset" : {
        "generator" : "Khronos glTF Blender I/O v3.2.43",
        "version" : "2.0"
    },
    "scene" : 0,
    "scenes" : [
        {
            "name" : "Scene",
            "nodes" : [
                0,
                1
            ]
        }
    ],
    "nodes" : [
        {
            "mesh" : 0,
            "name" : "Coin",
            "rotation" : [
                -0.6896914839744568,
                -0.15596717596054077,
                0.15596717596054077,
                0.689691424369812
            ]
        },
        {
            "mesh" : 1,
            "name" : "CenterCoin",
            "rotation" : [
                -0.6896914839744568,
                -0.15596717596054077,
                0.15596717596054077,
                0.689691424369812
            ]
        }
    ],
    "materials" : [
        {
            "doubleSided" : true,
            "name" : "CoinFront.001",
            "pbrMetallicRoughness" : {
                "baseColorTexture" : {
                    "index" : 0
                },
                "metallicFactor" : 0,
                "metallicRoughnessTexture" : {
                    "index" : 1
                }
            }
        },
        {
            "doubleSided" : true,
            "name" : "LogoWhite",
            "pbrMetallicRoughness" : {
                "baseColorFactor" : [
                    1,
                    1,
                    1,
                    1
                ],
                "metallicFactor" : 0,
                "roughnessFactor" : 0.4000000059604645
            }
        },
        {
            "doubleSided" : true,
            "name" : "LogoYellow",
            "pbrMetallicRoughness" : {
                "baseColorFactor" : [
                    1,
                    0.7912976145744324,
                    0,
                    1
                ],
                "metallicFactor" : 0,
                "roughnessFactor" : 0.5
            }
        },
        {
            "doubleSided" : true,
            "name" : "LogoPurple",
            "pbrMetallicRoughness" : {
                "baseColorFactor" : [
                    0.050787027925252914,
                    0.049393076449632645,
                    0.050873078405857086,
                    1
                ],
                "metallicFactor" : 0,
                "roughnessFactor" : 0.5
            }
        },
        {
            "doubleSided" : true,
            "emissiveFactor" : [
                0.10858934372663498,
                0.10858934372663498,
                0.10858934372663498
            ],
            "name" : "EdgeSide.001",
            "pbrMetallicRoughness" : {
                "baseColorFactor" : [
                    0.4551891088485718,
                    0.44167187809944153,
                    0.8000000715255737,
                    1
                ],
                "metallicFactor" : 0,
                "roughnessFactor" : 0
            }
        }
    ],
    "meshes" : [
        {
            "name" : "CoinShape",
            "primitives" : [
                {
                    "attributes" : {
                        "POSITION" : 0,
                        "NORMAL" : 1,
                        "TEXCOORD_0" : 2
                    },
                    "indices" : 3,
                    "material" : 0
                },
                {
                    "attributes" : {
                        "POSITION" : 4,
                        "NORMAL" : 5,
                        "TEXCOORD_0" : 6
                    },
                    "indices" : 7,
                    "material" : 1
                },
                {
                    "attributes" : {
                        "POSITION" : 8,
                        "NORMAL" : 9,
                        "TEXCOORD_0" : 10
                    },
                    "indices" : 11,
                    "material" : 2
                },
                {
                    "attributes" : {
                        "POSITION" : 12,
                        "NORMAL" : 13,
                        "TEXCOORD_0" : 14
                    },
                    "indices" : 15,
                    "material" : 3
                }
            ]
        },
        {
            "name" : "CoinShape.001",
            "primitives" : [
                {
                    "attributes" : {
                        "POSITION" : 16,
                        "NORMAL" : 17,
                        "TEXCOORD_0" : 18
                    },
                    "indices" : 19,
                    "material" : 4
                }
            ]
        }
    ],
    "textures" : [
        {
            "sampler" : 0,
            "source" : 0
        },
        {
            "sampler" : 0,
            "source" : 1
        }
    ],
    "images" : [
        {
            "mimeType" : "image/png",
            "name" : "coin_diffuse",
            "uri" : "textures/coin_diffuse.png"
        },
        {
            "mimeType" : "image/png",
            "name" : "coin_metalic",
            "uri" : "textures/coin_metalic.png"
        }
    ],
    "accessors" : [
        {
            "bufferView" : 0,
            "componentType" : 5126,
            "count" : 74,
            "max" : [
                0.9523670673370361,
                0.07908749580383301,
                0.9497920870780945
            ],
            "min" : [
                -0.9523670673370361,
                -0.07908749580383301,
                -0.9532259702682495
            ],
            "type" : "VEC3"
        },
        {
            "bufferView" : 1,
            "componentType" : 5126,
            "count" : 74,
            "type" : "VEC3"
        },
        {
            "bufferView" : 2,
            "componentType" : 5126,
            "count" : 74,
            "type" : "VEC2"
        },
        {
            "bufferView" : 3,
            "componentType" : 5123,
            "count" : 210,
            "type" : "SCALAR"
        },
        {
            "bufferView" : 4,
            "componentType" : 5126,
            "count" : 1388,
            "max" : [
                0.4662103056907654,
                0.08810439705848694,
                0.6251450181007385
            ],
            "min" : [
                -0.34960243105888367,
                -0.0982968658208847,
                -0.38013920187950134
            ],
            "type" : "VEC3"
        },
        {
            "bufferView" : 5,
            "componentType" : 5126,
            "count" : 1388,
            "type" : "VEC3"
        },
        {
            "bufferView" : 6,
            "componentType" : 5126,
            "count" : 1388,
            "type" : "VEC2"
        },
        {
            "bufferView" : 7,
            "componentType" : 5123,
            "count" : 2130,
            "type" : "SCALAR"
        },
        {
            "bufferView" : 8,
            "componentType" : 5126,
            "count" : 422,
            "max" : [
                0.28370311856269836,
                0.088104248046875,
                0.22960177063941956
            ],
            "min" : [
                -0.3161831498146057,
                -0.09829679131507874,
                -0.29737409949302673
            ],
            "type" : "VEC3"
        },
        {
            "bufferView" : 9,
            "componentType" : 5126,
            "count" : 422,
            "type" : "VEC3"
        },
        {
            "bufferView" : 10,
            "componentType" : 5126,
            "count" : 422,
            "type" : "VEC2"
        },
        {
            "bufferView" : 11,
            "componentType" : 5123,
            "count" : 558,
            "type" : "SCALAR"
        },
        {
            "bufferView" : 12,
            "componentType" : 5126,
            "count" : 404,
            "max" : [
                0.4323725402355194,
                0.0881042629480362,
                0.5415019989013672
            ],
            "min" : [
                -0.16751372814178467,
                -0.09829682111740112,
                0.014526069164276123
            ],
            "type" : "VEC3"
        },
        {
            "bufferView" : 13,
            "componentType" : 5126,
            "count" : 404,
            "type" : "VEC3"
        },
        {
            "bufferView" : 14,
            "componentType" : 5126,
            "count" : 404,
            "type" : "VEC2"
        },
        {
            "bufferView" : 15,
            "componentType" : 5123,
            "count" : 552,
            "type" : "SCALAR"
        },
        {
            "bufferView" : 16,
            "componentType" : 5126,
            "count" : 222,
            "max" : [
                0.9523670673370361,
                0.0769117921590805,
                0.9497920870780945
            ],
            "min" : [
                -0.9523670673370361,
                -0.07666387408971786,
                -0.9532259702682495
            ],
            "type" : "VEC3"
        },
        {
            "bufferView" : 17,
            "componentType" : 5126,
            "count" : 222,
            "type" : "VEC3"
        },
        {
            "bufferView" : 18,
            "componentType" : 5126,
            "count" : 222,
            "type" : "VEC2"
        },
        {
            "bufferView" : 19,
            "componentType" : 5123,
            "count" : 1320,
            "type" : "SCALAR"
        }
    ],
    "bufferViews" : [
        {
            "buffer" : 0,
            "byteLength" : 888,
            "byteOffset" : 0
        },
        {
            "buffer" : 0,
            "byteLength" : 888,
            "byteOffset" : 888
        },
        {
            "buffer" : 0,
            "byteLength" : 592,
            "byteOffset" : 1776
        },
        {
            "buffer" : 0,
            "byteLength" : 420,
            "byteOffset" : 2368
        },
        {
            "buffer" : 0,
            "byteLength" : 16656,
            "byteOffset" : 2788
        },
        {
            "buffer" : 0,
            "byteLength" : 16656,
            "byteOffset" : 19444
        },
        {
            "buffer" : 0,
            "byteLength" : 11104,
            "byteOffset" : 36100
        },
        {
            "buffer" : 0,
            "byteLength" : 4260,
            "byteOffset" : 47204
        },
        {
            "buffer" : 0,
            "byteLength" : 5064,
            "byteOffset" : 51464
        },
        {
            "buffer" : 0,
            "byteLength" : 5064,
            "byteOffset" : 56528
        },
        {
            "buffer" : 0,
            "byteLength" : 3376,
            "byteOffset" : 61592
        },
        {
            "buffer" : 0,
            "byteLength" : 1116,
            "byteOffset" : 64968
        },
        {
            "buffer" : 0,
            "byteLength" : 4848,
            "byteOffset" : 66084
        },
        {
            "buffer" : 0,
            "byteLength" : 4848,
            "byteOffset" : 70932
        },
        {
            "buffer" : 0,
            "byteLength" : 3232,
            "byteOffset" : 75780
        },
        {
            "buffer" : 0,
            "byteLength" : 1104,
            "byteOffset" : 79012
        },
        {
            "buffer" : 0,
            "byteLength" : 2664,
            "byteOffset" : 80116
        },
        {
            "buffer" : 0,
            "byteLength" : 2664,
            "byteOffset" : 82780
        },
        {
            "buffer" : 0,
            "byteLength" : 1776,
            "byteOffset" : 85444
        },
        {
            "buffer" : 0,
            "byteLength" : 2640,
            "byteOffset" : 87220
        }
    ],
    "samplers" : [
        {
            "magFilter" : 9729,
            "minFilter" : 9987
        }
    ],
    "buffers" : [
        {
            "byteLength" : 89860,
            "uri" : "coin.bin"
        }
    ]
}
